<?xml version="1.0" encoding="UTF-8"?>
<svg xmlns="http://www.w3.org/2000/svg" style="display:none;">
  <symbol id="icon-facebook" viewBox="0 0 24 24">
    <path d="M22 12c0-5.522-4.478-10-10-10S2 6.478 2 12c0 5 3.657 9.127 8.438 9.877v-6.987H7.898v-2.89h2.54V9.797
      c0-2.506 1.493-3.89 3.777-3.89 1.094 0 2.238.195 2.238.195v2.46h-1.26c-1.243 0-1.63.771-1.63 1.562v1.875h2.773l-.443 2.89h-2.33
      v6.987C18.343 21.127 22 17 22 12z" />
  </symbol>

  <symbol id="icon-instagram" viewBox="0 0 24 24">
    <path d="M7.75 2h8.5A5.75 5.75 0 0 1 22 7.75v8.5A5.75 5.75 0 0 1 16.25 22h-8.5A5.75 5.75 0 0 1 2 16.25v-8.5A5.75 5.75 0 0 1 7.75 2zm0
      1.5A4.25 4.25 0 0 0 3.5 7.75v8.5A4.25 4.25 0 0 0 7.75 20.5h8.5a4.25 4.25 0 0 0 4.25-4.25v-8.5A4.25 4.25 0 0 0 16.25 3.5h-8.5zM12 7a5
      5 0 1 1 0 10 5 5 0 0 1 0-10zm0 1.5a3.5 3.5 0 1 0 0 7 3.5 3.5 0 0 0 0-7zM17.5 6a1 1 0 1 1 0 2 1 1 0 0 1 0-2z" />
  </symbol>

  <symbol id="icon-youtube" viewBox="0 0 24 24">
    <path d="M21.8 8s-.2-1.4-.8-2c-.7-.8-1.6-.8-2-1C16 4.5 12 4.5 12 4.5h0s-4 0-7 0.5c-.4 0-1.3.2-2 1-.6.6-.8 2-.8 2S2 9.6 2 11.3v1.5c0
      1.7.2 3.3.2 3.3s.2 1.4.8 2c.7.8 1.6.8 2 1 3 .5 7 .5 7 .5s4 0 7-.5c.4 0 1.3-.2 2-1 .6-.6.8-2 .8-2s.2-1.6.2-3.3v-1.5c0-1.7-.2-3.3-.2-3.3zM10
      14.5v-5l5 2.5-5 2.5z" />
  </symbol>

  <symbol id="icon-x" viewBox="0 0 24 24">
    <path d="M18 2H6a4 4 0 0 0-4 4v12a4 4 0 0 0 4 4h12a4 4 0 0 0 4-4V6a4 4 0 0 0-4-4zm-.9 15.5-3.4-4.2-2.1 2.2v2h-2.5V8.5h2.5v4.7l5.3-4.7H19
      l-4.2 3.7L19 17.5h-1.9z" />
  </symbol>

  <symbol id="icon-discord" viewBox="0 0 24 24">
    <path d="M20 0H4C1.8 0 0 1.8 0 4v16c0 2.2 1.8 4 4 4h13.5l-.6-2.1 1.4 1.3 1.3 1.2L24 24V4c0-2.2-1.8-4-4-4zM9.5 15.5c-.8 0-1.5-.9-1.5-2
      s.7-2 1.5-2 1.5.9 1.5 2-.7 2-1.5 2zm5 0c-.8 0-1.5-.9-1.5-2s.7-2 1.5-2 1.5.9 1.5 2-.7 2-1.5 2z" />
  </symbol>

  <symbol id="logo-rm" viewBox="0 0 180 14">
    <path d="M9.8,5.2c0,0.7-0.2,0.9-0.8,0.9H4.3V1.9H9c0.6,0,0.8,0.3,0.8,0.9L9.8,5.2z M14.4,14c-0.6-0.6-0.8-1.1-1.1-1.8
      l-1.7-4.3C13,7.7,13.7,7,13.7,5.6v-3c0-1.5-0.9-2.6-2.7-2.6H0C0.1,0.6,0.3,1,0.3,1.9v10.3c0,0.9-0.1,1.3-0.3,1.8h4.6
      c-0.1-0.5-0.3-0.9-0.3-1.8V7.9h3L9.7,14H14.4z" />
  </symbol>
</svg>
